<?xml version="1.0" encoding="utf-8"?>
<!-- Generator: Adobe Illustrator 17.0.0, SVG Export Plug-In . SVG Version: 6.00 Build 0)  -->
<!DOCTYPE svg PUBLIC "-//W3C//DTD SVG 1.1//EN" "http://www.w3.org/Graphics/SVG/1.1/DTD/svg11.dtd">
<svg version="1.1" id="Calque_1" xmlns="http://www.w3.org/2000/svg" xmlns:xlink="http://www.w3.org/1999/xlink" x="0px" y="0px"
	 width="351.718px" height="128.441px" viewBox="121.111 353.637 351.718 128.441"
	 enable-background="new 121.111 353.637 351.718 128.441" xml:space="preserve">
<g id="logo">
	<g>
		<g>
			<path fill="#1A1A1A" d="M140.644,395.774c1.929,3.123,4.869,4.685,9.003,4.685c3.675,0,5.328-1.654,5.328-3.583
				c0-1.378-0.735-2.297-1.929-2.94c-0.643-0.459-2.113-1.102-3.032-1.378c-0.827-0.367-2.94-1.011-3.95-1.47
				c-5.604-2.021-8.635-4.961-8.635-10.381c0-3.032,1.102-5.512,3.399-7.349c2.297-1.837,5.144-2.756,8.451-2.756
				c5.144,0,9.095,1.929,11.85,5.879l-5.236,4.042c-1.47-1.837-3.583-2.756-6.43-2.756c-2.572,0-4.318,1.194-4.318,2.94
				c0,1.194,0.276,1.929,1.378,2.572c0.551,0.276,1.102,0.551,1.562,0.735l2.572,0.827c1.194,0.367,2.205,0.735,3.032,1.102
				c6.522,2.48,9.095,5.512,9.095,10.656c0,6.614-4.501,10.932-13.32,10.932c-7.257,0-12.218-3.215-14.698-7.9L140.644,395.774z"/>
			<path fill="#1A1A1A" d="M165.447,394.121c0-4.042,1.378-7.349,3.95-9.829c2.572-2.48,5.971-3.766,10.013-3.766
				c3.95,0,7.165,1.286,9.554,3.766c2.48,2.48,3.675,5.604,3.675,9.37c0,0.827-0.092,1.654-0.092,2.48H172.98
				c0.184,3.032,2.848,5.053,6.89,5.053c2.388,0,4.501-0.827,6.339-2.48l4.501,4.226c-3.032,3.123-6.798,4.685-11.116,4.685
				c-4.226,0-7.625-1.194-10.289-3.675c-2.572-2.48-3.858-5.696-3.858-9.738L165.447,394.121L165.447,394.121z M185.014,391.181
				c0-2.388-2.48-4.318-5.604-4.318c-3.307,0-6.063,1.929-6.247,4.318H185.014z"/>
			<path fill="#1A1A1A" d="M195.303,407.073V381.26h7.625v3.215c1.011-2.297,3.583-3.766,6.706-3.766
				c3.491,0,5.879,1.378,6.982,4.134c1.47-2.756,4.318-4.134,8.635-4.134c5.879,0,9.186,4.042,9.186,10.748v15.709h-7.625v-14.79
				c0-3.032-1.378-4.869-3.858-4.869s-4.318,2.113-4.318,5.144v14.515h-7.625v-14.79c0-3.032-1.378-4.869-3.858-4.869
				s-4.226,2.113-4.226,5.144v14.515h-7.625V407.073z"/>
			<path fill="#1A1A1A" d="M248.493,390.997c3.766-0.367,5.236-0.735,5.236-2.388c0-1.47-1.194-2.113-3.491-2.113
				c-2.756,0-4.961,1.102-6.89,3.215l-4.501-3.858c2.756-3.675,6.43-5.512,11.299-5.512c6.89,0,11.116,3.215,11.116,8.727v9.829
				c0,1.837,0.551,2.021,1.929,2.021h0.184v6.063c-0.735,0.367-1.745,0.551-3.032,0.551c-1.47,0-2.664-0.367-3.675-1.102
				c-0.551-0.459-0.919-1.011-1.194-1.654c-1.654,2.021-4.593,3.032-8.727,3.032c-5.787,0-9.646-3.123-9.646-7.9
				C237.102,394.488,240.592,391.824,248.493,390.997z M247.941,401.47c3.675,0,5.787-1.562,5.787-4.593v-1.929
				c-0.276,0.276-0.643,0.367-1.47,0.643l-0.919,0.184c-0.551,0.092-2.021,0.276-2.664,0.367c-2.664,0.367-4.226,1.102-4.226,2.94
				C244.543,400.643,245.645,401.47,247.941,401.47z"/>
			<path fill="#1A1A1A" d="M270.264,370.42c2.388,0,4.318,1.929,4.318,4.318s-1.929,4.318-4.318,4.318
				c-2.388,0-4.318-1.929-4.318-4.318C265.855,372.257,267.876,370.42,270.264,370.42z M266.498,407.073V381.26h7.625v25.814
				H266.498z"/>
			<path fill="#1A1A1A" d="M277.154,407.073V381.26h7.625v3.215c1.102-2.297,4.042-3.766,7.533-3.766
				c6.339,0,9.921,4.042,9.921,10.748v15.709h-7.625v-14.79c0-3.032-1.654-4.869-4.685-4.869c-2.94,0-5.053,2.113-5.053,5.144
				v14.515h-7.717V407.073z"/>
			<path fill="#1A1A1A" d="M304.805,394.121c0-4.042,1.378-7.349,3.95-9.829c2.572-2.48,5.971-3.766,10.013-3.766
				c3.95,0,7.165,1.286,9.554,3.766c2.48,2.48,3.675,5.604,3.675,9.37c0,0.827-0.092,1.654-0.092,2.48h-19.567
				c0.184,3.032,2.848,5.053,6.89,5.053c2.388,0,4.501-0.827,6.339-2.48l4.501,4.226c-3.032,3.123-6.798,4.685-11.116,4.685
				c-4.226,0-7.625-1.194-10.289-3.675c-2.572-2.48-3.858-5.696-3.858-9.738L304.805,394.121L304.805,394.121z M324.372,391.181
				c0-2.388-2.48-4.318-5.604-4.318c-3.307,0-6.063,1.929-6.247,4.318H324.372z"/>
		</g>
		<g>
			<path fill="#0D2A89" d="M134.765,458.426v-33.622h9.921v4.226c1.378-2.94,5.236-4.961,9.829-4.961
				c8.176,0,12.861,5.236,12.861,13.963v20.394h-9.921v-19.2c0-3.95-2.205-6.339-6.155-6.339c-3.766,0-6.614,2.756-6.614,6.706
				v18.832H134.765L134.765,458.426z"/>
			<path fill="#0D2A89" d="M171.143,424.803h10.105v19.2c0,4.226,2.48,6.247,6.155,6.247c3.675,0,6.155-1.929,6.155-6.247v-19.2
				h10.105v20.026c0,4.685-1.562,8.268-4.685,10.748c-3.032,2.48-6.89,3.766-11.575,3.766c-4.593,0-8.452-1.286-11.575-3.766
				c-3.032-2.48-4.593-6.063-4.593-10.748v-20.026H171.143z"/>
			<path fill="#0D2A89" d="M207.246,458.426v-33.622h9.921v4.226c1.286-2.94,4.685-4.961,8.727-4.961
				c4.501,0,7.625,1.837,9.095,5.328c1.837-3.491,5.604-5.328,11.207-5.328c7.625,0,11.942,5.236,11.942,13.963v20.394h-9.921v-19.2
				c0-3.95-1.837-6.339-4.961-6.339c-3.307,0-5.604,2.756-5.604,6.706v18.832h-9.921v-19.2c0-3.95-1.837-6.339-4.961-6.339
				c-3.123,0-5.512,2.756-5.512,6.706v18.832H207.246L207.246,458.426z"/>
			<path fill="#0D2A89" d="M261.905,441.523c0-5.236,1.745-9.554,5.144-12.769c3.399-3.307,7.808-4.869,13.045-4.869
				c5.144,0,9.278,1.654,12.494,4.961s4.777,7.257,4.777,12.126c0,1.102-0.092,2.205-0.092,3.215h-25.446
				c0.184,4.042,3.675,6.614,8.911,6.614c3.123,0,5.879-1.102,8.176-3.307l5.787,5.512c-3.95,4.042-8.819,6.155-14.423,6.155
				c-5.512,0-9.921-1.562-13.32-4.777c-3.399-3.215-5.053-7.441-5.053-12.677V441.523z M287.443,437.756
				c0-3.123-3.307-5.604-7.257-5.604c-4.318,0-7.9,2.48-8.176,5.604H287.443z M275.501,421.588l3.307-9.646h10.748l-6.706,9.646
				H275.501z"/>
			<path fill="#0D2A89" d="M301.131,458.426v-33.622h9.921v4.593c1.562-3.399,5.144-5.328,9.738-5.328
				c0.643,0,1.562,0.092,2.572,0.184v9.37c-1.01-0.184-2.113-0.367-3.307-0.367c-5.696,0-9.003,3.215-9.003,8.727v16.444
				L301.131,458.426L301.131,458.426z"/>
			<path fill="#0D2A89" d="M374.898,429.488v-4.409h9.921v46.391h-9.921V454.2c-1.011,2.94-4.961,4.961-10.013,4.961
				c-4.777,0-8.727-1.654-11.942-4.961c-3.123-3.399-4.777-7.533-4.777-12.402c0-4.869,1.562-9.003,4.777-12.31
				c3.215-3.399,7.165-5.053,11.942-5.053C370.029,424.436,373.887,426.549,374.898,429.488z M372.877,447.861
				c1.745-1.654,2.572-3.675,2.572-5.971c0-2.297-0.827-4.318-2.572-5.971c-1.654-1.654-3.766-2.48-6.155-2.48
				c-2.388,0-4.409,0.827-6.063,2.48c-1.654,1.562-2.48,3.583-2.48,5.971c0,2.297,0.827,4.318,2.48,5.971
				c1.654,1.562,3.675,2.388,6.063,2.388C369.202,450.25,371.223,449.423,372.877,447.861z"/>
			<path fill="#0D2A89" d="M388.677,425.079h10.105v19.2c0,4.226,2.48,6.247,6.155,6.247c3.675,0,6.155-1.929,6.155-6.247v-19.2
				h10.105v20.026c0,4.685-1.562,8.268-4.685,10.748c-3.032,2.48-6.89,3.766-11.575,3.766c-4.593,0-8.452-1.286-11.575-3.766
				c-3.032-2.48-4.593-6.063-4.593-10.748v-20.026H388.677z"/>
			<path fill="#0D2A89" d="M425.056,441.798c0-5.236,1.745-9.554,5.144-12.769c3.399-3.307,7.808-4.869,13.045-4.869
				c5.144,0,9.278,1.654,12.494,4.961c3.215,3.307,4.777,7.257,4.777,12.126c0,1.102-0.092,2.205-0.092,3.215h-25.446
				c0.184,4.042,3.675,6.614,8.911,6.614c3.123,0,5.879-1.102,8.176-3.307l5.787,5.512c-3.95,4.042-8.819,6.155-14.423,6.155
				c-5.512,0-9.921-1.562-13.32-4.777s-5.053-7.441-5.053-12.677V441.798z M450.502,437.94c0-3.123-3.307-5.604-7.257-5.604
				c-4.318,0-7.9,2.48-8.176,5.604H450.502z"/>
			<polygon fill="#0D2A89" points="330.252,458.517 318.493,458.517 358.179,380.617 369.845,380.617 			"/>
		</g>
	</g>
</g>
<g id="zone_x5F_protection" display="none">
	<path display="inline" opacity="0.13" fill="#ED1C24" enable-background="new    " d="M196.773,292.427h-11.667H83.413v245.002
		h152.862h11.667h263.834V292.427H196.773z M472.182,440.42l37.756-74.318v169.581H248.86l38.675-76.064h-11.667l-38.675,76.064
		H85.25v-58.701h9.829l39.593-77.901h-11.575L85.25,473.308V294.264h98.846l-38.675,76.155h11.667l38.675-76.064h314.176v68.163
		h-9.829l-39.593,77.901H472.182z"/>
</g>
</svg>
